<?xml version="1.0" encoding="utf-8"?>
<!-- Generator: Adobe Illustrator 19.2.0, SVG Export Plug-In . SVG Version: 6.00 Build 0)  -->
<svg version="1.1" id="Layer_1" xmlns="http://www.w3.org/2000/svg" xmlns:xlink="http://www.w3.org/1999/xlink" x="0px" y="0px"
	 viewBox="-0.2 146 842.3 303.3" style="enable-background:new -0.2 146 842.3 303.3;" xml:space="preserve">
<g>
	<path d="M377.3,272.4c48,0,87.6,40.4,87.6,88.1c0,48.4-39.6,88.9-87.6,88.9c-48,0-87.6-40.4-87.6-88.9
		C289.7,312.8,329.3,272.4,377.3,272.4z M377.3,395c18.5,0,33.3-15.6,33.3-34.5c0-18.5-14.7-33.7-33.3-33.7
		c-18.5,0-33.3,15.2-33.3,33.7C344,379.4,358.8,395,377.3,395z"/>
	<path d="M475.1,287.9c-2.9-5.5,0.8-11.4,7.2-11.4h47.2c2.9,0,6.3,2.1,7.6,4.6l24.8,57.3c0.4,0,0.8,0,1.3,0l26.5-57.3
		c2.5-5.1,5.5-4.6,11.4-4.6h42.5c6.3,0,10.1,5.9,7.2,11.4l-80,157.1c-1.3,2.1-4.6,4.2-7.2,4.2h-2.1c-2.5,0-5.9-2.1-7.2-4.2
		L475.1,287.9z"/>
	<path d="M655.5,401.3l26.5-26.5c2.9-2.9,7.2-3.4,10.5-0.8c0,0,26.1,19.4,46.3,19.4c18.1,0,36.7-15.2,36.7-33.7
		c0-18.5-19-34.1-50.1-34.1h-23.6c-4.2,0-8-3.8-8-8v-35c0-4.6,3.8-8,8-8h23.6c29.5,0,45.1-14.3,45.1-32.4
		c0-18.1-15.6-31.6-33.7-31.6c-18.5,0-30.3,9.7-36.6,16.8c-2.9,3.4-8,3.4-11.4,0.4l-25.7-25.3c-3.4-3-2.9-8,0-11
		c0,0,34.6-37.1,80.5-37.1c48.9,0,91,29.9,91,77.1c0,32.4-24.4,56.4-43.4,65.3v1.3c19.8,8.4,51,34.5,51,70.8
		c0,45.9-40,80.5-98.2,80.5c-53.1,0-80-26.1-88.9-37.5C652.5,408.9,652.9,404.2,655.5,401.3z"/>
	<path d="M186.4,307.7L20.9,148.9c-0.1-0.1-2.8-2.9-7.9-2.9H7.8c-4.9,0-8,3.4-8,7.6v283.5c0,4.2,3.8,8,8,8h50.6c4.6,0,8-3.8,8-8
		l0-157.1h0.4l165.6,166.4c0.1,0.1,2.8,2.9,7.9,2.9h5.2c4.9,0,8-3.4,8-7.6V158.2c0-4.2-3.8-8-8-8h-50.6c-4.6,0-8,3.8-8,8v149.6
		H186.4z"/>
</g>
</svg>
